# xmcd
# 
# Track frame offsets:
#     150
#     16497
#     38880
#     66057
# 
# Disc length: 1201
# 
# Revision: 0
# Processed by: cddbd v1.5.2PL0 Copyright (c) Steve Scherf et al.
# Submitted via: fre:ac v1.0.31
# 
DISCID=2c04af04
DTITLE=Mantronik vs. EPMD - Strictly Business
DYEAR=1998
DGENRE=Electro
TTITLE0=Strictly Business [Mantronik MBA Radio Edit]
TTITLE1=Strictly Business [Mantronik MBA Formula]
TTITLE2=Strictly Business [Rascal Dub]
TTITLE3=Strictly Business [Mantronik MBA Instrumental]
EXTD=\n
EXTT0=
EXTT1=
EXTT2=
EXTT3=
PLAYORDER=
